<svg xmlns="http://www.w3.org/2000/svg" xmlns:xlink="http://www.w3.org/1999/xlink" preserveAspectRatio="xMidYMid" width="13" height="25" viewBox="0 0 13 25">
  <path fill="#39549d" d="M7.826,24.946 C7.826,24.946 2.614,24.946 2.614,24.946 C2.614,24.946 2.614,12.476 2.614,12.476 C2.614,12.476 0.009,12.476 0.009,12.476 C0.009,12.476 0.009,8.179 0.009,8.179 C0.009,8.179 2.614,8.179 2.614,8.179 C2.614,8.179 2.614,5.599 2.614,5.599 C2.614,2.093 4.084,0.008 8.261,0.008 C8.261,0.008 11.740,0.008 11.740,0.008 C11.740,0.008 11.740,4.306 11.740,4.306 C11.740,4.306 9.565,4.306 9.565,4.306 C7.939,4.306 7.832,4.907 7.832,6.028 C7.832,6.028 7.826,8.179 7.826,8.179 C7.826,8.179 11.764,8.179 11.764,8.179 C11.764,8.179 11.303,12.476 11.303,12.476 C11.303,12.476 7.826,12.476 7.826,12.476 C7.826,12.476 7.826,24.946 7.826,24.946 Z" id="path-1" class="cls-2" fill-rule="evenodd"/>
</svg>
