<svg xmlns="http://www.w3.org/2000/svg" xmlns:xlink="http://www.w3.org/1999/xlink" preserveAspectRatio="xMidYMid" width="27" height="27" viewBox="0 0 27 27">
  <path fill="#66cdf7" d="M25.003,-0.001 C25.003,-0.001 1.989,-0.001 1.989,-0.001 C0.890,-0.001 -0.002,0.871 -0.002,1.946 C-0.002,1.946 -0.002,25.053 -0.002,25.053 C-0.002,26.129 0.890,27.002 1.989,27.002 C1.989,27.002 25.003,27.002 25.003,27.002 C26.104,27.002 27.000,26.129 27.000,25.053 C27.000,25.053 27.000,1.946 27.000,1.946 C27.000,0.871 26.104,-0.001 25.003,-0.001 ZM8.008,23.008 C8.008,23.008 3.999,23.008 3.999,23.008 C3.999,23.008 3.999,10.122 3.999,10.122 C3.999,10.122 8.008,10.122 8.008,10.122 C8.008,10.122 8.008,23.008 8.008,23.008 ZM6.004,8.362 C4.718,8.362 3.681,7.321 3.681,6.039 C3.681,4.757 4.718,3.717 6.004,3.717 C7.285,3.717 8.326,4.757 8.326,6.039 C8.326,7.321 7.285,8.362 6.004,8.362 ZM23.008,23.008 C23.008,23.008 19.003,23.008 19.003,23.008 C19.003,23.008 19.003,16.742 19.003,16.742 C19.003,15.248 18.978,13.325 16.922,13.325 C14.838,13.325 14.520,14.954 14.520,16.635 C14.520,16.635 14.520,23.008 14.520,23.008 C14.520,23.008 10.520,23.008 10.520,23.008 C10.520,23.008 10.520,10.122 10.520,10.122 C10.520,10.122 14.359,10.122 14.359,10.122 C14.359,10.122 14.359,11.884 14.359,11.884 C14.359,11.884 14.414,11.884 14.414,11.884 C14.948,10.871 16.255,9.803 18.204,9.803 C22.259,9.803 23.008,12.471 23.008,15.941 C23.008,15.941 23.008,23.008 23.008,23.008 Z" id="path-1" class="cls-2" fill-rule="evenodd"/>
</svg>
